<svg width="201" height="251" viewBox="0 0 201 251" fill="none" xmlns="http://www.w3.org/2000/svg">
  <g transform="translate(18 18)">
    <path d="M34 58L104 18L171 56L100 97L34 58Z" fill="#16C7C3" stroke="#111111" stroke-width="3" stroke-linejoin="round"/>
    <path d="M34 58V82L100 120V97L34 58Z" fill="#0C8F9A" stroke="#111111" stroke-width="3" stroke-linejoin="round"/>
    <path d="M100 97V120L171 80V56L100 97Z" fill="#12AAB3" stroke="#111111" stroke-width="3" stroke-linejoin="round"/>
    <rect x="88" y="34" width="30" height="37" rx="4" fill="white" stroke="#111111" stroke-width="2"/>
    <path d="M94 46H112" stroke="#16C7C3" stroke-width="3" stroke-linecap="round"/>
    <path d="M94 54H112" stroke="#16C7C3" stroke-width="3" stroke-linecap="round"/>
    <path d="M94 62H106" stroke="#16C7C3" stroke-width="3" stroke-linecap="round"/>

    <path d="M43 110L109 73L173 109L106 147L43 110Z" fill="#8A47D7" stroke="#111111" stroke-width="3" stroke-linejoin="round"/>
    <path d="M43 110V133L106 170V147L43 110Z" fill="#5D31A0" stroke="#111111" stroke-width="3" stroke-linejoin="round"/>
    <path d="M106 147V170L173 133V109L106 147Z" fill="#6D39BB" stroke="#111111" stroke-width="3" stroke-linejoin="round"/>
    <path d="M86 107L98 119L127 91" stroke="white" stroke-width="6" stroke-linecap="round" stroke-linejoin="round"/>

    <path d="M51 158L116 121L180 157L113 195L51 158Z" fill="#2F3595" stroke="#111111" stroke-width="3" stroke-linejoin="round"/>
    <path d="M51 158V180L113 217V195L51 158Z" fill="#21256E" stroke="#111111" stroke-width="3" stroke-linejoin="round"/>
    <path d="M113 195V217L180 180V157L113 195Z" fill="#252A7E" stroke="#111111" stroke-width="3" stroke-linejoin="round"/>
    <rect x="93" y="164" width="38" height="24" rx="6" fill="white"/>
    <path d="M100 172H124" stroke="#2F3595" stroke-width="4" stroke-linecap="round"/>
    <path d="M100 180H118" stroke="#2F3595" stroke-width="4" stroke-linecap="round"/>
  </g>
</svg>
