<svg width="201" height="251" viewBox="0 0 201 251" fill="none" xmlns="http://www.w3.org/2000/svg">
  <g transform="translate(18 18)">
    <path d="M33 58L104 18L171 56L99 97L33 58Z" fill="#16C7C3" stroke="#111111" stroke-width="3" stroke-linejoin="round"/>
    <path d="M33 58V82L99 120V97L33 58Z" fill="#0C8F9A" stroke="#111111" stroke-width="3" stroke-linejoin="round"/>
    <path d="M99 97V120L171 80V56L99 97Z" fill="#12AAB3" stroke="#111111" stroke-width="3" stroke-linejoin="round"/>
    <rect x="80" y="34" width="46" height="30" rx="6" fill="white"/>
    <rect x="86" y="40" width="12" height="8" rx="2" fill="#16C7C3"/>
    <rect x="102" y="40" width="18" height="8" rx="2" fill="#8A47D7"/>
    <rect x="86" y="52" width="34" height="6" rx="2" fill="#2F3595"/>

    <path d="M41 111L109 72L174 109L105 148L41 111Z" fill="#8A47D7" stroke="#111111" stroke-width="3" stroke-linejoin="round"/>
    <path d="M41 111V134L105 171V148L41 111Z" fill="#5D31A0" stroke="#111111" stroke-width="3" stroke-linejoin="round"/>
    <path d="M105 148V171L174 134V109L105 148Z" fill="#6D39BB" stroke="#111111" stroke-width="3" stroke-linejoin="round"/>
    <rect x="80" y="96" width="50" height="28" rx="6" fill="white"/>
    <rect x="86" y="102" width="12" height="16" rx="2" fill="#16C7C3"/>
    <rect x="102" y="102" width="10" height="16" rx="2" fill="#8A47D7"/>
    <rect x="116" y="102" width="8" height="16" rx="2" fill="#2F3595"/>

    <path d="M50 159L116 121L180 157L112 196L50 159Z" fill="#2F3595" stroke="#111111" stroke-width="3" stroke-linejoin="round"/>
    <path d="M50 159V181L112 218V196L50 159Z" fill="#21256E" stroke="#111111" stroke-width="3" stroke-linejoin="round"/>
    <path d="M112 196V218L180 181V157L112 196Z" fill="#252A7E" stroke="#111111" stroke-width="3" stroke-linejoin="round"/>
    <circle cx="112" cy="174" r="12" fill="white"/>
    <path d="M112 168V180" stroke="#2F3595" stroke-width="4" stroke-linecap="round"/>
    <path d="M106 174H118" stroke="#2F3595" stroke-width="4" stroke-linecap="round"/>
  </g>
</svg>
