<svg width="201" height="251" viewBox="0 0 201 251" fill="none" xmlns="http://www.w3.org/2000/svg">
  <g transform="translate(18 18)">
    <path d="M33 60L104 19L171 57L99 99L33 60Z" fill="#16C7C3" stroke="#111111" stroke-width="3" stroke-linejoin="round"/>
    <path d="M33 60V84L99 123V99L33 60Z" fill="#0C8F9A" stroke="#111111" stroke-width="3" stroke-linejoin="round"/>
    <path d="M99 99V123L171 81V57L99 99Z" fill="#12AAB3" stroke="#111111" stroke-width="3" stroke-linejoin="round"/>
    <path d="M78 44C78 35.1634 85.1634 28 94 28H111C119.837 28 127 35.1634 127 44C127 52.8366 119.837 60 111 60H104V69" stroke="white" stroke-width="5" stroke-linecap="round" stroke-linejoin="round"/>
    <circle cx="104" cy="79" r="3.8" fill="white"/>

    <path d="M41 110L109 72L174 109L105 148L41 110Z" fill="#8A47D7" stroke="#111111" stroke-width="3" stroke-linejoin="round"/>
    <path d="M41 110V133L105 171V148L41 110Z" fill="#5D31A0" stroke="#111111" stroke-width="3" stroke-linejoin="round"/>
    <path d="M105 148V171L174 133V109L105 148Z" fill="#6D39BB" stroke="#111111" stroke-width="3" stroke-linejoin="round"/>
    <path d="M83 95L124 118" stroke="white" stroke-width="5" stroke-linecap="round"/>
    <path d="M126 95L86 118" stroke="white" stroke-width="5" stroke-linecap="round"/>

    <path d="M49 158L116 121L180 157L112 196L49 158Z" fill="#2F3595" stroke="#111111" stroke-width="3" stroke-linejoin="round"/>
    <path d="M49 158V181L112 218V196L49 158Z" fill="#21256E" stroke="#111111" stroke-width="3" stroke-linejoin="round"/>
    <path d="M112 196V218L180 181V157L112 196Z" fill="#252A7E" stroke="#111111" stroke-width="3" stroke-linejoin="round"/>
    <rect x="96" y="166" width="32" height="20" rx="10" fill="white"/>
    <path d="M104 186L108 194L114 186" fill="white"/>
  </g>
</svg>
